<?xml version="1.0" encoding="utf-8" standalone="no"?>
<!DOCTYPE svg PUBLIC "-//W3C//DTD SVG 1.1//EN"
  "http://www.w3.org/Graphics/SVG/1.1/DTD/svg11.dtd">
<svg xmlns:xlink="http://www.w3.org/1999/xlink" width="268.8pt" height="241.92pt" viewBox="0 0 268.8 241.92" xmlns="http://www.w3.org/2000/svg" version="1.1">
 <metadata>
  <rdf:RDF xmlns:dc="http://purl.org/dc/elements/1.1/" xmlns:cc="http://creativecommons.org/ns#" xmlns:rdf="http://www.w3.org/1999/02/22-rdf-syntax-ns#">
   <cc:Work>
    <dc:type rdf:resource="http://purl.org/dc/dcmitype/StillImage"/>
    <dc:date>2023-05-12T12:34:31.953216</dc:date>
    <dc:format>image/svg+xml</dc:format>
    <dc:creator>
     <cc:Agent>
      <dc:title>Matplotlib v3.5.0, https://matplotlib.org/</dc:title>
     </cc:Agent>
    </dc:creator>
   </cc:Work>
  </rdf:RDF>
 </metadata>
 <defs>
  <style type="text/css">*{stroke-linejoin: round; stroke-linecap: butt}</style>
 </defs>
 <g id="figure_1">
  <g id="patch_1">
   <path d="M 0 241.92 
L 268.8 241.92 
L 268.8 0 
L 0 0 
z
" style="fill: #ffffff"/>
  </g>
  <g id="axes_1">
   <g id="patch_2">
    <path d="M 56.928125 217.941875 
L 258 217.941875 
L 258 10.8 
L 56.928125 10.8 
z
" style="fill: #ffffff"/>
   </g>
   <g id="patch_3">
    <path d="M 156.593621 10.8 
L 156.593621 52.228375 
L 153.111857 52.228375 
L 66.067756 118.513775 
L 153.111857 118.513775 
L 153.111857 217.941875 
M 158.334504 10.8 
L 158.334504 52.228375 
L 161.816268 52.228375 
L 248.860369 118.513775 
L 161.816268 118.513775 
L 161.816268 217.941875 
L 161.816268 217.941875 
" clip-path="url(#pf482d46621)" style="fill: none; stroke: #1f77b4; stroke-linejoin: miter"/>
   </g>
   <g id="PolyCollection_1">
    <path d="M 158.334504 10.8 
L 156.593621 10.8 
L 156.593621 52.228375 
L 153.111857 52.228375 
L 152.232624 52.897924 
L 151.353391 53.567474 
L 150.474157 54.237023 
L 149.594924 54.906573 
L 148.715691 55.576122 
L 147.836457 56.245672 
L 146.957224 56.915221 
L 146.077991 57.584771 
L 145.198757 58.25432 
L 144.319524 58.92387 
L 143.440291 59.593419 
L 142.561057 60.262969 
L 141.681824 60.932518 
L 140.802591 61.602068 
L 139.923357 62.271617 
L 139.044124 62.941167 
L 138.16489 63.610716 
L 137.285657 64.280266 
L 136.406424 64.949815 
L 135.52719 65.619365 
L 134.647957 66.288914 
L 133.768724 66.958464 
L 132.88949 67.628013 
L 132.010257 68.297563 
L 131.131024 68.967112 
L 130.25179 69.636662 
L 129.372557 70.306211 
L 128.493324 70.975761 
L 127.61409 71.64531 
L 126.734857 72.31486 
L 125.855624 72.984409 
L 124.97639 73.653959 
L 124.097157 74.323508 
L 123.217923 74.993058 
L 122.33869 75.662607 
L 121.459457 76.332157 
L 120.580223 77.001706 
L 119.70099 77.671256 
L 118.821757 78.340805 
L 117.942523 79.010355 
L 117.06329 79.679904 
L 116.184057 80.349454 
L 115.304823 81.019003 
L 114.42559 81.688553 
L 113.546357 82.358102 
L 112.667123 83.027652 
L 111.78789 83.697201 
L 110.908657 84.366751 
L 110.029423 85.0363 
L 109.15019 85.70585 
L 108.270957 86.375399 
L 107.391723 87.044949 
L 106.51249 87.714498 
L 105.633256 88.384048 
L 104.754023 89.053597 
L 103.87479 89.723147 
L 102.995556 90.392696 
L 102.116323 91.062246 
L 101.23709 91.731795 
L 100.357856 92.401345 
L 99.478623 93.070894 
L 98.59939 93.740444 
L 97.720156 94.409993 
L 96.840923 95.079543 
L 95.96169 95.749092 
L 95.082456 96.418642 
L 94.203223 97.088191 
L 93.32399 97.757741 
L 92.444756 98.42729 
L 91.565523 99.09684 
L 90.68629 99.766389 
L 89.807056 100.435939 
L 88.927823 101.105488 
L 88.048589 101.775038 
L 87.169356 102.444587 
L 86.290123 103.114137 
L 85.410889 103.783686 
L 84.531656 104.453236 
L 83.652423 105.122785 
L 82.773189 105.792335 
L 81.893956 106.461884 
L 81.014723 107.131434 
L 80.135489 107.800983 
L 79.256256 108.470533 
L 78.377023 109.140082 
L 77.497789 109.809632 
L 76.618556 110.479181 
L 75.739323 111.148731 
L 74.860089 111.81828 
L 73.980856 112.48783 
L 73.101622 113.157379 
L 72.222389 113.826929 
L 71.343156 114.496478 
L 70.463922 115.166028 
L 69.584689 115.835577 
L 68.705456 116.505127 
L 67.826222 117.174676 
L 66.946989 117.844226 
L 66.067756 118.513775 
L 153.111857 118.513775 
L 153.111857 217.941875 
L 161.816268 217.941875 
L 161.816268 217.941875 
L 161.816268 118.513775 
L 248.860369 118.513775 
L 247.981136 117.844226 
L 247.101903 117.174676 
L 246.222669 116.505127 
L 245.343436 115.835577 
L 244.464203 115.166028 
L 243.584969 114.496478 
L 242.705736 113.826929 
L 241.826503 113.157379 
L 240.947269 112.48783 
L 240.068036 111.81828 
L 239.188802 111.148731 
L 238.309569 110.479181 
L 237.430336 109.809632 
L 236.551102 109.140082 
L 235.671869 108.470533 
L 234.792636 107.800983 
L 233.913402 107.131434 
L 233.034169 106.461884 
L 232.154936 105.792335 
L 231.275702 105.122785 
L 230.396469 104.453236 
L 229.517236 103.783686 
L 228.638002 103.114137 
L 227.758769 102.444587 
L 226.879536 101.775038 
L 226.000302 101.105488 
L 225.121069 100.435939 
L 224.241835 99.766389 
L 223.362602 99.09684 
L 222.483369 98.42729 
L 221.604135 97.757741 
L 220.724902 97.088191 
L 219.845669 96.418642 
L 218.966435 95.749092 
L 218.087202 95.079543 
L 217.207969 94.409993 
L 216.328735 93.740444 
L 215.449502 93.070894 
L 214.570269 92.401345 
L 213.691035 91.731795 
L 212.811802 91.062246 
L 211.932569 90.392696 
L 211.053335 89.723147 
L 210.174102 89.053597 
L 209.294869 88.384048 
L 208.415635 87.714498 
L 207.536402 87.044949 
L 206.657168 86.375399 
L 205.777935 85.70585 
L 204.898702 85.0363 
L 204.019468 84.366751 
L 203.140235 83.697201 
L 202.261002 83.027652 
L 201.381768 82.358102 
L 200.502535 81.688553 
L 199.623302 81.019003 
L 198.744068 80.349454 
L 197.864835 79.679904 
L 196.985602 79.010355 
L 196.106368 78.340805 
L 195.227135 77.671256 
L 194.347902 77.001706 
L 193.468668 76.332157 
L 192.589435 75.662607 
L 191.710202 74.993058 
L 190.830968 74.323508 
L 189.951735 73.653959 
L 189.072501 72.984409 
L 188.193268 72.31486 
L 187.314035 71.64531 
L 186.434801 70.975761 
L 185.555568 70.306211 
L 184.676335 69.636662 
L 183.797101 68.967112 
L 182.917868 68.297563 
L 182.038635 67.628013 
L 181.159401 66.958464 
L 180.280168 66.288914 
L 179.400935 65.619365 
L 178.521701 64.949815 
L 177.642468 64.280266 
L 176.763235 63.610716 
L 175.884001 62.941167 
L 175.004768 62.271617 
L 174.125534 61.602068 
L 173.246301 60.932518 
L 172.367068 60.262969 
L 171.487834 59.593419 
L 170.608601 58.92387 
L 169.729368 58.25432 
L 168.850134 57.584771 
L 167.970901 56.915221 
L 167.091668 56.245672 
L 166.212434 55.576122 
L 165.333201 54.906573 
L 164.453968 54.237023 
L 163.574734 53.567474 
L 162.695501 52.897924 
L 161.816268 52.228375 
L 158.334504 52.228375 
L 158.334504 10.8 
z
" clip-path="url(#pf482d46621)" style="fill: #1f77b4; fill-opacity: 0.5"/>
   </g>
   <g id="matplotlib.axis_1">
    <g id="xtick_1">
     <g id="line2d_1"/>
     <g id="text_1">
      <!-- Популяция -->
      <g transform="translate(128.552344 229.040312)scale(0.1 -0.1)">
       <defs>
        <path id="DejaVuSans-41f" d="M 4184 4666 
L 4184 0 
L 3553 0 
L 3553 4134 
L 1259 4134 
L 1259 0 
L 628 0 
L 628 4666 
L 4184 4666 
z
" transform="scale(0.015625)"/>
        <path id="DejaVuSans-43e" d="M 1959 3097 
Q 1497 3097 1228 2736 
Q 959 2375 959 1747 
Q 959 1119 1226 758 
Q 1494 397 1959 397 
Q 2419 397 2687 759 
Q 2956 1122 2956 1747 
Q 2956 2369 2687 2733 
Q 2419 3097 1959 3097 
z
M 1959 3584 
Q 2709 3584 3137 3096 
Q 3566 2609 3566 1747 
Q 3566 888 3137 398 
Q 2709 -91 1959 -91 
Q 1206 -91 779 398 
Q 353 888 353 1747 
Q 353 2609 779 3096 
Q 1206 3584 1959 3584 
z
" transform="scale(0.015625)"/>
        <path id="DejaVuSans-43f" d="M 3603 3500 
L 3603 0 
L 3025 0 
L 3025 3041 
L 1159 3041 
L 1159 0 
L 581 0 
L 581 3500 
L 3603 3500 
z
" transform="scale(0.015625)"/>
        <path id="DejaVuSans-443" d="M 2059 -325 
Q 1816 -950 1584 -1140 
Q 1353 -1331 966 -1331 
L 506 -1331 
L 506 -850 
L 844 -850 
Q 1081 -850 1212 -737 
Q 1344 -625 1503 -206 
L 1606 56 
L 191 3500 
L 800 3500 
L 1894 763 
L 2988 3500 
L 3597 3500 
L 2059 -325 
z
" transform="scale(0.015625)"/>
        <path id="DejaVuSans-43b" d="M 238 0 
L 238 478 
Q 806 566 981 959 
Q 1194 1513 1194 2928 
L 1194 3500 
L 3559 3500 
L 3559 0 
L 2984 0 
L 2984 3041 
L 1769 3041 
L 1769 2694 
Q 1769 1344 1494 738 
Q 1200 91 238 0 
z
" transform="scale(0.015625)"/>
        <path id="DejaVuSans-44f" d="M 1181 2491 
Q 1181 2231 1381 2084 
Q 1581 1938 1953 1938 
L 2728 1938 
L 2728 3041 
L 1953 3041 
Q 1581 3041 1381 2897 
Q 1181 2753 1181 2491 
z
M 363 0 
L 1431 1534 
Q 1069 1616 828 1830 
Q 588 2044 588 2491 
Q 588 2997 923 3248 
Q 1259 3500 1938 3500 
L 3306 3500 
L 3306 0 
L 2728 0 
L 2728 1478 
L 2013 1478 
L 981 0 
L 363 0 
z
" transform="scale(0.015625)"/>
        <path id="DejaVuSans-446" d="M 3603 0 
L 581 0 
L 581 3500 
L 1159 3500 
L 1159 459 
L 3025 459 
L 3025 3500 
L 3603 3500 
L 3603 459 
L 4063 459 
L 4063 -884 
L 3603 -884 
L 3603 0 
z
" transform="scale(0.015625)"/>
        <path id="DejaVuSans-438" d="M 3578 3500 
L 3578 0 
L 3006 0 
L 3006 2809 
L 1319 0 
L 581 0 
L 581 3500 
L 1153 3500 
L 1153 697 
L 2838 3500 
L 3578 3500 
z
" transform="scale(0.015625)"/>
       </defs>
       <use xlink:href="#DejaVuSans-41f"/>
       <use xlink:href="#DejaVuSans-43e" x="75.195312"/>
       <use xlink:href="#DejaVuSans-43f" x="136.376953"/>
       <use xlink:href="#DejaVuSans-443" x="201.757812"/>
       <use xlink:href="#DejaVuSans-43b" x="260.9375"/>
       <use xlink:href="#DejaVuSans-44f" x="324.853516"/>
       <use xlink:href="#DejaVuSans-446" x="385.009766"/>
       <use xlink:href="#DejaVuSans-438" x="453.076172"/>
       <use xlink:href="#DejaVuSans-44f" x="518.066406"/>
      </g>
     </g>
    </g>
   </g>
   <g id="matplotlib.axis_2">
    <g id="ytick_1">
     <g id="line2d_2">
      <defs>
       <path id="m2950193fd3" d="M 0 0 
L -3.5 0 
" style="stroke: #000000; stroke-width: 0.8"/>
      </defs>
      <g>
       <use xlink:href="#m2950193fd3" x="56.928125" y="217.941875" style="stroke: #000000; stroke-width: 0.8"/>
      </g>
     </g>
     <g id="text_2">
      <!-- 0 -->
      <g transform="translate(43.565625 221.741094)scale(0.1 -0.1)">
       <defs>
        <path id="DejaVuSans-30" d="M 2034 4250 
Q 1547 4250 1301 3770 
Q 1056 3291 1056 2328 
Q 1056 1369 1301 889 
Q 1547 409 2034 409 
Q 2525 409 2770 889 
Q 3016 1369 3016 2328 
Q 3016 3291 2770 3770 
Q 2525 4250 2034 4250 
z
M 2034 4750 
Q 2819 4750 3233 4129 
Q 3647 3509 3647 2328 
Q 3647 1150 3233 529 
Q 2819 -91 2034 -91 
Q 1250 -91 836 529 
Q 422 1150 422 2328 
Q 422 3509 836 4129 
Q 1250 4750 2034 4750 
z
" transform="scale(0.015625)"/>
       </defs>
       <use xlink:href="#DejaVuSans-30"/>
      </g>
     </g>
    </g>
    <g id="ytick_2">
     <g id="line2d_3">
      <g>
       <use xlink:href="#m2950193fd3" x="56.928125" y="184.799175" style="stroke: #000000; stroke-width: 0.8"/>
      </g>
     </g>
     <g id="text_3">
      <!-- 500 -->
      <g transform="translate(30.840625 188.598394)scale(0.1 -0.1)">
       <defs>
        <path id="DejaVuSans-35" d="M 691 4666 
L 3169 4666 
L 3169 4134 
L 1269 4134 
L 1269 2991 
Q 1406 3038 1543 3061 
Q 1681 3084 1819 3084 
Q 2600 3084 3056 2656 
Q 3513 2228 3513 1497 
Q 3513 744 3044 326 
Q 2575 -91 1722 -91 
Q 1428 -91 1123 -41 
Q 819 9 494 109 
L 494 744 
Q 775 591 1075 516 
Q 1375 441 1709 441 
Q 2250 441 2565 725 
Q 2881 1009 2881 1497 
Q 2881 1984 2565 2268 
Q 2250 2553 1709 2553 
Q 1456 2553 1204 2497 
Q 953 2441 691 2322 
L 691 4666 
z
" transform="scale(0.015625)"/>
       </defs>
       <use xlink:href="#DejaVuSans-35"/>
       <use xlink:href="#DejaVuSans-30" x="63.623047"/>
       <use xlink:href="#DejaVuSans-30" x="127.246094"/>
      </g>
     </g>
    </g>
    <g id="ytick_3">
     <g id="line2d_4">
      <g>
       <use xlink:href="#m2950193fd3" x="56.928125" y="151.656475" style="stroke: #000000; stroke-width: 0.8"/>
      </g>
     </g>
     <g id="text_4">
      <!-- 1000 -->
      <g transform="translate(24.478125 155.455694)scale(0.1 -0.1)">
       <defs>
        <path id="DejaVuSans-31" d="M 794 531 
L 1825 531 
L 1825 4091 
L 703 3866 
L 703 4441 
L 1819 4666 
L 2450 4666 
L 2450 531 
L 3481 531 
L 3481 0 
L 794 0 
L 794 531 
z
" transform="scale(0.015625)"/>
       </defs>
       <use xlink:href="#DejaVuSans-31"/>
       <use xlink:href="#DejaVuSans-30" x="63.623047"/>
       <use xlink:href="#DejaVuSans-30" x="127.246094"/>
       <use xlink:href="#DejaVuSans-30" x="190.869141"/>
      </g>
     </g>
    </g>
    <g id="ytick_4">
     <g id="line2d_5">
      <g>
       <use xlink:href="#m2950193fd3" x="56.928125" y="118.513775" style="stroke: #000000; stroke-width: 0.8"/>
      </g>
     </g>
     <g id="text_5">
      <!-- 1500 -->
      <g transform="translate(24.478125 122.312994)scale(0.1 -0.1)">
       <use xlink:href="#DejaVuSans-31"/>
       <use xlink:href="#DejaVuSans-35" x="63.623047"/>
       <use xlink:href="#DejaVuSans-30" x="127.246094"/>
       <use xlink:href="#DejaVuSans-30" x="190.869141"/>
      </g>
     </g>
    </g>
    <g id="ytick_5">
     <g id="line2d_6">
      <g>
       <use xlink:href="#m2950193fd3" x="56.928125" y="85.371075" style="stroke: #000000; stroke-width: 0.8"/>
      </g>
     </g>
     <g id="text_6">
      <!-- 2000 -->
      <g transform="translate(24.478125 89.170294)scale(0.1 -0.1)">
       <defs>
        <path id="DejaVuSans-32" d="M 1228 531 
L 3431 531 
L 3431 0 
L 469 0 
L 469 531 
Q 828 903 1448 1529 
Q 2069 2156 2228 2338 
Q 2531 2678 2651 2914 
Q 2772 3150 2772 3378 
Q 2772 3750 2511 3984 
Q 2250 4219 1831 4219 
Q 1534 4219 1204 4116 
Q 875 4013 500 3803 
L 500 4441 
Q 881 4594 1212 4672 
Q 1544 4750 1819 4750 
Q 2544 4750 2975 4387 
Q 3406 4025 3406 3419 
Q 3406 3131 3298 2873 
Q 3191 2616 2906 2266 
Q 2828 2175 2409 1742 
Q 1991 1309 1228 531 
z
" transform="scale(0.015625)"/>
       </defs>
       <use xlink:href="#DejaVuSans-32"/>
       <use xlink:href="#DejaVuSans-30" x="63.623047"/>
       <use xlink:href="#DejaVuSans-30" x="127.246094"/>
       <use xlink:href="#DejaVuSans-30" x="190.869141"/>
      </g>
     </g>
    </g>
    <g id="ytick_6">
     <g id="line2d_7">
      <g>
       <use xlink:href="#m2950193fd3" x="56.928125" y="52.228375" style="stroke: #000000; stroke-width: 0.8"/>
      </g>
     </g>
     <g id="text_7">
      <!-- 2500 -->
      <g transform="translate(24.478125 56.027594)scale(0.1 -0.1)">
       <use xlink:href="#DejaVuSans-32"/>
       <use xlink:href="#DejaVuSans-35" x="63.623047"/>
       <use xlink:href="#DejaVuSans-30" x="127.246094"/>
       <use xlink:href="#DejaVuSans-30" x="190.869141"/>
      </g>
     </g>
    </g>
    <g id="ytick_7">
     <g id="line2d_8">
      <g>
       <use xlink:href="#m2950193fd3" x="56.928125" y="19.085675" style="stroke: #000000; stroke-width: 0.8"/>
      </g>
     </g>
     <g id="text_8">
      <!-- 3000 -->
      <g transform="translate(24.478125 22.884894)scale(0.1 -0.1)">
       <defs>
        <path id="DejaVuSans-33" d="M 2597 2516 
Q 3050 2419 3304 2112 
Q 3559 1806 3559 1356 
Q 3559 666 3084 287 
Q 2609 -91 1734 -91 
Q 1441 -91 1130 -33 
Q 819 25 488 141 
L 488 750 
Q 750 597 1062 519 
Q 1375 441 1716 441 
Q 2309 441 2620 675 
Q 2931 909 2931 1356 
Q 2931 1769 2642 2001 
Q 2353 2234 1838 2234 
L 1294 2234 
L 1294 2753 
L 1863 2753 
Q 2328 2753 2575 2939 
Q 2822 3125 2822 3475 
Q 2822 3834 2567 4026 
Q 2313 4219 1838 4219 
Q 1578 4219 1281 4162 
Q 984 4106 628 3988 
L 628 4550 
Q 988 4650 1302 4700 
Q 1616 4750 1894 4750 
Q 2613 4750 3031 4423 
Q 3450 4097 3450 3541 
Q 3450 3153 3228 2886 
Q 3006 2619 2597 2516 
z
" transform="scale(0.015625)"/>
       </defs>
       <use xlink:href="#DejaVuSans-33"/>
       <use xlink:href="#DejaVuSans-30" x="63.623047"/>
       <use xlink:href="#DejaVuSans-30" x="127.246094"/>
       <use xlink:href="#DejaVuSans-30" x="190.869141"/>
      </g>
     </g>
    </g>
    <g id="text_9">
     <!-- time ago (generations) -->
     <g transform="translate(18.398438 171.842031)rotate(-90)scale(0.1 -0.1)">
      <defs>
       <path id="DejaVuSans-74" d="M 1172 4494 
L 1172 3500 
L 2356 3500 
L 2356 3053 
L 1172 3053 
L 1172 1153 
Q 1172 725 1289 603 
Q 1406 481 1766 481 
L 2356 481 
L 2356 0 
L 1766 0 
Q 1100 0 847 248 
Q 594 497 594 1153 
L 594 3053 
L 172 3053 
L 172 3500 
L 594 3500 
L 594 4494 
L 1172 4494 
z
" transform="scale(0.015625)"/>
       <path id="DejaVuSans-69" d="M 603 3500 
L 1178 3500 
L 1178 0 
L 603 0 
L 603 3500 
z
M 603 4863 
L 1178 4863 
L 1178 4134 
L 603 4134 
L 603 4863 
z
" transform="scale(0.015625)"/>
       <path id="DejaVuSans-6d" d="M 3328 2828 
Q 3544 3216 3844 3400 
Q 4144 3584 4550 3584 
Q 5097 3584 5394 3201 
Q 5691 2819 5691 2113 
L 5691 0 
L 5113 0 
L 5113 2094 
Q 5113 2597 4934 2840 
Q 4756 3084 4391 3084 
Q 3944 3084 3684 2787 
Q 3425 2491 3425 1978 
L 3425 0 
L 2847 0 
L 2847 2094 
Q 2847 2600 2669 2842 
Q 2491 3084 2119 3084 
Q 1678 3084 1418 2786 
Q 1159 2488 1159 1978 
L 1159 0 
L 581 0 
L 581 3500 
L 1159 3500 
L 1159 2956 
Q 1356 3278 1631 3431 
Q 1906 3584 2284 3584 
Q 2666 3584 2933 3390 
Q 3200 3197 3328 2828 
z
" transform="scale(0.015625)"/>
       <path id="DejaVuSans-65" d="M 3597 1894 
L 3597 1613 
L 953 1613 
Q 991 1019 1311 708 
Q 1631 397 2203 397 
Q 2534 397 2845 478 
Q 3156 559 3463 722 
L 3463 178 
Q 3153 47 2828 -22 
Q 2503 -91 2169 -91 
Q 1331 -91 842 396 
Q 353 884 353 1716 
Q 353 2575 817 3079 
Q 1281 3584 2069 3584 
Q 2775 3584 3186 3129 
Q 3597 2675 3597 1894 
z
M 3022 2063 
Q 3016 2534 2758 2815 
Q 2500 3097 2075 3097 
Q 1594 3097 1305 2825 
Q 1016 2553 972 2059 
L 3022 2063 
z
" transform="scale(0.015625)"/>
       <path id="DejaVuSans-20" transform="scale(0.015625)"/>
       <path id="DejaVuSans-61" d="M 2194 1759 
Q 1497 1759 1228 1600 
Q 959 1441 959 1056 
Q 959 750 1161 570 
Q 1363 391 1709 391 
Q 2188 391 2477 730 
Q 2766 1069 2766 1631 
L 2766 1759 
L 2194 1759 
z
M 3341 1997 
L 3341 0 
L 2766 0 
L 2766 531 
Q 2569 213 2275 61 
Q 1981 -91 1556 -91 
Q 1019 -91 701 211 
Q 384 513 384 1019 
Q 384 1609 779 1909 
Q 1175 2209 1959 2209 
L 2766 2209 
L 2766 2266 
Q 2766 2663 2505 2880 
Q 2244 3097 1772 3097 
Q 1472 3097 1187 3025 
Q 903 2953 641 2809 
L 641 3341 
Q 956 3463 1253 3523 
Q 1550 3584 1831 3584 
Q 2591 3584 2966 3190 
Q 3341 2797 3341 1997 
z
" transform="scale(0.015625)"/>
       <path id="DejaVuSans-67" d="M 2906 1791 
Q 2906 2416 2648 2759 
Q 2391 3103 1925 3103 
Q 1463 3103 1205 2759 
Q 947 2416 947 1791 
Q 947 1169 1205 825 
Q 1463 481 1925 481 
Q 2391 481 2648 825 
Q 2906 1169 2906 1791 
z
M 3481 434 
Q 3481 -459 3084 -895 
Q 2688 -1331 1869 -1331 
Q 1566 -1331 1297 -1286 
Q 1028 -1241 775 -1147 
L 775 -588 
Q 1028 -725 1275 -790 
Q 1522 -856 1778 -856 
Q 2344 -856 2625 -561 
Q 2906 -266 2906 331 
L 2906 616 
Q 2728 306 2450 153 
Q 2172 0 1784 0 
Q 1141 0 747 490 
Q 353 981 353 1791 
Q 353 2603 747 3093 
Q 1141 3584 1784 3584 
Q 2172 3584 2450 3431 
Q 2728 3278 2906 2969 
L 2906 3500 
L 3481 3500 
L 3481 434 
z
" transform="scale(0.015625)"/>
       <path id="DejaVuSans-6f" d="M 1959 3097 
Q 1497 3097 1228 2736 
Q 959 2375 959 1747 
Q 959 1119 1226 758 
Q 1494 397 1959 397 
Q 2419 397 2687 759 
Q 2956 1122 2956 1747 
Q 2956 2369 2687 2733 
Q 2419 3097 1959 3097 
z
M 1959 3584 
Q 2709 3584 3137 3096 
Q 3566 2609 3566 1747 
Q 3566 888 3137 398 
Q 2709 -91 1959 -91 
Q 1206 -91 779 398 
Q 353 888 353 1747 
Q 353 2609 779 3096 
Q 1206 3584 1959 3584 
z
" transform="scale(0.015625)"/>
       <path id="DejaVuSans-28" d="M 1984 4856 
Q 1566 4138 1362 3434 
Q 1159 2731 1159 2009 
Q 1159 1288 1364 580 
Q 1569 -128 1984 -844 
L 1484 -844 
Q 1016 -109 783 600 
Q 550 1309 550 2009 
Q 550 2706 781 3412 
Q 1013 4119 1484 4856 
L 1984 4856 
z
" transform="scale(0.015625)"/>
       <path id="DejaVuSans-6e" d="M 3513 2113 
L 3513 0 
L 2938 0 
L 2938 2094 
Q 2938 2591 2744 2837 
Q 2550 3084 2163 3084 
Q 1697 3084 1428 2787 
Q 1159 2491 1159 1978 
L 1159 0 
L 581 0 
L 581 3500 
L 1159 3500 
L 1159 2956 
Q 1366 3272 1645 3428 
Q 1925 3584 2291 3584 
Q 2894 3584 3203 3211 
Q 3513 2838 3513 2113 
z
" transform="scale(0.015625)"/>
       <path id="DejaVuSans-72" d="M 2631 2963 
Q 2534 3019 2420 3045 
Q 2306 3072 2169 3072 
Q 1681 3072 1420 2755 
Q 1159 2438 1159 1844 
L 1159 0 
L 581 0 
L 581 3500 
L 1159 3500 
L 1159 2956 
Q 1341 3275 1631 3429 
Q 1922 3584 2338 3584 
Q 2397 3584 2469 3576 
Q 2541 3569 2628 3553 
L 2631 2963 
z
" transform="scale(0.015625)"/>
       <path id="DejaVuSans-73" d="M 2834 3397 
L 2834 2853 
Q 2591 2978 2328 3040 
Q 2066 3103 1784 3103 
Q 1356 3103 1142 2972 
Q 928 2841 928 2578 
Q 928 2378 1081 2264 
Q 1234 2150 1697 2047 
L 1894 2003 
Q 2506 1872 2764 1633 
Q 3022 1394 3022 966 
Q 3022 478 2636 193 
Q 2250 -91 1575 -91 
Q 1294 -91 989 -36 
Q 684 19 347 128 
L 347 722 
Q 666 556 975 473 
Q 1284 391 1588 391 
Q 1994 391 2212 530 
Q 2431 669 2431 922 
Q 2431 1156 2273 1281 
Q 2116 1406 1581 1522 
L 1381 1569 
Q 847 1681 609 1914 
Q 372 2147 372 2553 
Q 372 3047 722 3315 
Q 1072 3584 1716 3584 
Q 2034 3584 2315 3537 
Q 2597 3491 2834 3397 
z
" transform="scale(0.015625)"/>
       <path id="DejaVuSans-29" d="M 513 4856 
L 1013 4856 
Q 1481 4119 1714 3412 
Q 1947 2706 1947 2009 
Q 1947 1309 1714 600 
Q 1481 -109 1013 -844 
L 513 -844 
Q 928 -128 1133 580 
Q 1338 1288 1338 2009 
Q 1338 2731 1133 3434 
Q 928 4138 513 4856 
z
" transform="scale(0.015625)"/>
      </defs>
      <use xlink:href="#DejaVuSans-74"/>
      <use xlink:href="#DejaVuSans-69" x="39.208984"/>
      <use xlink:href="#DejaVuSans-6d" x="66.992188"/>
      <use xlink:href="#DejaVuSans-65" x="164.404297"/>
      <use xlink:href="#DejaVuSans-20" x="225.927734"/>
      <use xlink:href="#DejaVuSans-61" x="257.714844"/>
      <use xlink:href="#DejaVuSans-67" x="318.994141"/>
      <use xlink:href="#DejaVuSans-6f" x="382.470703"/>
      <use xlink:href="#DejaVuSans-20" x="443.652344"/>
      <use xlink:href="#DejaVuSans-28" x="475.439453"/>
      <use xlink:href="#DejaVuSans-67" x="514.453125"/>
      <use xlink:href="#DejaVuSans-65" x="577.929688"/>
      <use xlink:href="#DejaVuSans-6e" x="639.453125"/>
      <use xlink:href="#DejaVuSans-65" x="702.832031"/>
      <use xlink:href="#DejaVuSans-72" x="764.355469"/>
      <use xlink:href="#DejaVuSans-61" x="805.46875"/>
      <use xlink:href="#DejaVuSans-74" x="866.748047"/>
      <use xlink:href="#DejaVuSans-69" x="905.957031"/>
      <use xlink:href="#DejaVuSans-6f" x="933.740234"/>
      <use xlink:href="#DejaVuSans-6e" x="994.921875"/>
      <use xlink:href="#DejaVuSans-73" x="1058.300781"/>
      <use xlink:href="#DejaVuSans-29" x="1110.400391"/>
     </g>
    </g>
   </g>
   <g id="patch_4">
    <path d="M 56.928125 217.941875 
L 56.928125 10.8 
" style="fill: none; stroke: #000000; stroke-width: 0.8; stroke-linejoin: miter; stroke-linecap: square"/>
   </g>
  </g>
 </g>
 <defs>
  <clipPath id="pf482d46621">
   <rect x="56.928125" y="10.8" width="201.071875" height="207.141875"/>
  </clipPath>
 </defs>
</svg>
